<?xml version="1.0"?><svg width="600" height="405" xmlns="http://www.w3.org/2000/svg">
 <!-- Created with SVG-edit - http://svg-edit.googlecode.com/ -->
 <title>Princess Crown</title>

 <g>
  <title>Layer 1</title>
  <path id="svg_4" d="m199.664001,305.636536c-1.190994,-5.554016 -2.363998,-14.184082 -3.555008,-19.738098c-1.563995,-5.11499 -2.399994,-9.502991 -4.508987,-15.527008c-2.109009,-6.023987 -3.358002,-8.605988 -6.400009,-14c-3.041992,-5.393997 -3.332993,-6.279175 -8,-11.600006c-4.667007,-5.320831 -4.496994,-5.781998 -9.199997,-8.399994c-4.703003,-2.617996 -7.466995,-3.320999 -11.199997,-2.800003c-3.733002,0.520996 -4,1.309006 -6,3.600006c-2,2.291 -2.061005,4 -2,6c0.060989,2 0.593994,4.25499 2.800003,7.199997c2.205994,2.944992 4.338989,4.98201 7.599991,7.200012c3.261002,2.217987 5.333008,2.933014 8,4.399994c3.333008,1.333008 6.667007,3.029999 10,4c3.333008,0.970001 5.333008,1.394012 8,1.817993c2.667007,0.424011 8.266998,0.388 12.400009,0.582001c3.599991,-0.399994 6.278992,-0.315002 10.799988,-1.199982c4.521011,-0.88501 4.557999,-1.152008 9.200012,-3.200012c4.641998,-2.048004 7.466995,-3.199982 11.199997,-5.600006c3.733002,-2.400009 7.466995,-4.073013 11.199997,-7.199997c3.733002,-3.126999 7.285004,-6.109009 11.199997,-10.800003c3.915009,-4.69101 6.533035,-9.733002 8.363663,-14c1.830627,-4.266998 3.296631,-8.533005 4.036346,-12.800003c0.739716,-4.266998 0.727295,-5.139725 1.272766,-8.981827c0.545471,-3.842102 -0.800018,-9.527283 -2.472778,-13.018173c-1.67276,-3.490891 -3.963593,-6.581818 -8.399994,-9.600006c-4.436401,-3.018188 -6.012405,-3.757935 -11.199997,-4c-5.187592,-0.242065 -6.57663,-0.407288 -10.981827,2c-4.405197,2.407288 -4.18042,3.002914 -6.408661,6.209534c-2.228241,3.206619 -1.895767,4.183884 -2.190491,8.076202c-0.294724,3.892319 -0.079315,3.774506 0.780975,7.714264c0.860291,3.939758 1.394272,5.236359 4,8.400009c2.605728,3.163651 6.204102,4.351868 8.297836,4.271881c2.093735,-0.079987 3.321304,0.05191 5.968887,-0.900436c2.647583,-0.952347 4.921158,-3.15329 6.315094,-5.735092c1.393936,-2.581802 1.95491,-5.200012 1.627686,-6.836349c-0.327225,-1.636337 -2.914261,-5.445923 -4.514252,-5.809509c-1.599991,-0.363586 -3.729904,-0.779205 -5.390503,1.135956c-1.660599,1.915161 -2.498688,3.994797 -3.432022,5.728134" stroke-width="5" stroke="#000000" fill="none"/>
  <path id="svg_5" d="m263.617004,216.753006c2.541992,-0.184006 4.026001,-0.220001 7.626007,-1.353012c3.600983,-1.132996 2.066986,-0.399994 6.401001,-2.599991c4.332977,-2.199997 5.865997,-3.400009 8.198975,-5.400009c2.334015,-2 5.534027,-4.799988 8.200012,-7.199997c2.266998,-2.666992 4.134003,-5.53299 6.399994,-8.199997c1.334015,-2.932999 3.067017,-5.667007 4.399994,-8.600006c1.600006,-4 3.100006,-8.200012 4.700012,-12.200012c0.93399,-3.732986 1.867004,-7.366989 2.799988,-11.099991c0.533997,-3.733002 1.165985,-6.966995 1.5,-11.099991c0.334015,-4.132996 0.867035,-8.066986 0.900024,-12.399994c0.03299,-4.333008 0.300995,-4.600006 -0.5,-9.600006c-0.800018,-5 -2.766724,-8.766678 -4.599945,-10.300003c-1.833221,-1.533325 -2.766418,-1.46666 -3.399597,-1.799995l-1.399475,-0.300003c-5.799896,-0.599998 -10.626984,1.553001 -12.826996,5.153c-2.200012,3.599998 -2.200012,6.800003 -2.373993,9.646996c-0.173004,2.847 -0.425995,5.753006 0,10.800003c0.427002,5.046997 0.773987,7.553009 1.600006,12c0.826996,4.447006 0.973999,4.553009 2,10c1.026978,5.447006 1.373993,5.953003 2.200989,8.800003c0.825989,2.847 0.372986,1.352997 2.199005,5.800003c1.826996,4.446991 1.373993,2.752991 2.799988,6.599991c1.427002,3.847 3.572998,5.753006 5.200012,8.800003c1.626984,3.046997 2.372986,3.352997 4.799988,6c2.427002,2.647003 3.173004,2.753006 6.800018,5.800003c3.626984,3.046997 3.573975,2.552994 5.799988,4c2.226013,1.447006 2.972992,1.953003 6.200012,3.399994c3.22699,1.447006 7.973999,2.553009 7.599976,2.400009c-0.372986,-0.153 5.973999,0.953003 5.600006,0.800003" stroke-width="5" stroke="#000000" fill="none"/>
  <path id="svg_6" d="m265.173004,171.552994l0.444946,-2.221527c0.518524,-1.777649 0.888794,-2.14772 1.333191,-3.036392c0.444397,-0.888672 1.927856,-2.329849 3.821869,-2.742081c1.894012,-0.412231 3.285004,-0.251999 5.22699,0.647003c1.941986,0.899002 4.626007,3.436996 5.200012,5.600006c0.573975,2.162994 1.46698,6.117996 1.451996,8.07399c-0.015015,1.956009 -0.058014,3.646011 -0.326019,5.274002c-0.267975,1.628998 -0.752991,7.605011 -1.125977,7.452011c-0.373016,-0.153 -1.182007,-12.462006 -2.222015,-15.200012c-1.040009,-2.737991 -1.972992,-3.909988 -2.977997,-4.799988c-1.005005,-0.889999 -1.942993,-1.952011 -4,-2c-2.057007,-0.048004 -6.826996,2.952988 -6.826996,2.952988z" stroke="#000000" fill="none"/>
  <path id="svg_15" d="m297.572998,238.612l-0.060242,-0.542374l-0.060242,-0.542374l-0.060242,-0.542374l-0.060272,-0.542374l-0.060272,-0.542374l-0.060242,-0.542374l-0.110229,-0.542389l-0.110229,-0.542374l-0.150024,-0.522751l-0.25,-0.522736l-0.25,-0.522751l-0.25,-0.522751l-0.25,-0.522751l-0.25,-0.522751l-0.25,-0.522751l-0.25,-0.422745l-0.409119,-0.554504l-0.409119,-0.454498l-0.409119,-0.454498l-0.409149,-0.454498l-0.409149,-0.454498l-0.409119,-0.454498l-0.359131,-0.354492l-0.6091,-0.40451l-0.322784,-0.209137l-0.572723,-0.259125l-0.522736,-0.159119l-0.522766,-0.159119l-0.522766,-0.159119l-0.522736,-0.159134l-0.522736,-0.109131l-0.522766,-0.059113l-0.636353,-0.009125l-0.636383,0.040863l-0.636383,0.040863l-0.636353,0.040878l-0.636383,0.140884l-0.636383,0.090866l-0.636353,0.140869l-0.636383,0.190887l-0.527252,0.286377l-0.527222,0.336365l-0.427277,0.286362l-0.477264,0.386383l-0.527191,0.436386l-0.427307,0.436371l-0.427277,0.436371l-0.377258,0.436386l-0.508972,0.76825l-0.408997,0.818253l-0.408997,0.818237l-0.309021,0.818253l-0.281738,0.86351l-0.181732,0.863495l-0.181732,0.863495l-0.031799,0.813507l0.077271,0.686493l0.454529,1.27301l-0.227264,-0.636505l0.504486,1.322998l0.359009,0.449997l0.408997,0.5l0.408997,0.5l0.55896,0.449997l0.486542,0.23175l0.686615,0.281769l0.586365,0.181747l0.636505,0.131744l0.863495,0.186249l0.863525,0.136246l0.863495,0.086258l0.863495,-0.013763l0.45401,-0.035995l0.504974,-0.036987l0.45401,-0.136002l0.404999,-0.236008l-0.573975,-0.352005l-0.573029,-0.352997l-0.573975,-0.352005l-0.574005,-0.35199l-0.574005,-0.352005l-0.574005,-0.352997l-0.574005,-0.352005l-0.373993,-0.401993l-0.427002,-0.768005l-0.22699,-0.819l-0.027008,-0.867996l0.162994,-0.677002l0.364014,-0.727005l0.363007,-0.727997l0.513977,-0.576996l0.759003,-0.468002l0.908997,-0.317993l0.908997,-0.318008l0.959015,-0.168991l0.760986,0.010986l0.811005,0.161011l0.809998,0.160995l0.811005,0.210999l0.546997,0.318008l0.548004,0.366989l0.546997,0.368011l0.546997,0.366989l0.548004,0.367996l0.546997,0.367004l0.546997,0.367004l0.548004,0.417999l0.425018,0.384995l0.425995,0.436005l0.425995,0.434998l0.425995,0.434998l0.425018,0.436005l0.425995,0.434998l0.425995,0.436005l0.425995,0.434998z" stroke="#000000" fill="#000000"/>
  <path id="svg_16" d="m296.545441,224.39946c-0.100006,-1.50708 -0.130432,-1.89238 -0.043488,-3.39946c0.086945,-1.50708 0.056976,-2.574203 0.357086,-3.468155c0.30011,-0.893951 0.35025,-1.337875 1.000275,-2.28183c0.650024,-0.943954 1.849548,-1.842438 2.931732,-2.192444c1.082184,-0.350006 1.97699,-0.431854 3.208954,-0.239395c1.231964,0.192459 1.977142,0.693954 2.909088,1.636368c0.931946,0.942413 1.404633,2.248444 1.636353,3.090912c0.23172,0.842468 0.28186,2.639313 0.363647,4.181824c0.081787,1.542511 -0.012421,1.639862 0,3.090897c0.012421,1.451035 -1.997589,-2.351486 -2.909088,-2.909088c-0.911499,-0.557602 -1.541168,-0.851517 -2.659149,-0.909088c-1.117981,-0.057571 -2.622711,0.153 -3.340851,0.545456c-0.71814,0.392456 -1.600037,1.0439 -1.918152,1.436356c-0.318115,0.392456 -1.392975,1.265442 -1.536407,1.417648z" stroke="#000000" fill="none"/>
  <path id="svg_17" d="m302.845459,244.430313c-0.199951,0.65004 -1.105988,-3.93541 -1.509033,-5.503082c-0.301544,-1.415146 -0.603119,-2.830292 -0.904663,-4.245438c-0.248474,-1.590897 -0.674377,-3.427246 -0.595459,-4.822708c0.078918,-1.395462 0.507721,-2.990952 1.436432,-3.586365c0.928711,-0.595413 1.449982,-0.656067 2.118164,-0.556061c0.668182,0.100006 1.681732,0.886383 2.06366,1.828796c0.381927,0.942413 0.44989,1.78479 0.381744,2.627258c-0.068146,0.842468 -0.09549,1.225693 -0.413605,3.768188c-0.318115,2.542496 -0.209259,1.480194 -0.477356,3.072708c-0.268097,1.592514 -0.677399,2.77562 -1.145294,4.518204c-0.467896,1.742584 -0.754639,2.248459 -0.95459,2.898499z" stroke="#000000" fill="#000000"/>
  <path id="svg_21" d="m296.663635,242.612137l3.423309,9.660583l-3.423309,-9.660583z" stroke="#000000" fill="none"/>
  <path id="svg_22" d="m309.027252,242.975739l-3.564819,9.376068l3.564819,-9.376068z" stroke="#000000" fill="none"/>
  <path id="svg_27" d="m264.927551,171.728485l0.445007,-2.222c0.517975,-1.776993 0.888977,-2.146988 1.332977,-3.035995c0.445007,-0.888992 1.928009,-2.330002 3.822021,-2.742004c1.893982,-0.411987 3.285004,-0.251999 5.22699,0.647003c1.941986,0.899002 4.181641,3.36293 5.200012,5.600006c1.018372,2.237076 1.689178,5.006744 1.451996,8.07399c-0.237183,3.067245 -0.058014,3.646011 -0.326019,5.274002c-0.267975,1.628998 -0.752991,7.605011 -1.125977,7.452011c-0.373016,-0.153 -1.182007,-12.462006 -2.222015,-15.200012c-1.040009,-2.737991 -1.972992,-3.909988 -2.977997,-4.799988c-1.005005,-0.889999 -1.942993,-1.952011 -4,-2c-2.057007,-0.048004 -6.826996,2.952988 -6.826996,2.952988z" stroke="#000000" fill="#000000"/>
  <path id="svg_28" d="m338.702209,171.654404l-0.416748,-2.222c-0.485107,-1.776993 -0.832581,-2.146988 -1.248413,-3.035995c-0.416809,-0.888992 -1.805664,-2.330002 -3.579529,-2.742004c-1.773804,-0.411987 -3.076599,-0.251999 -4.895386,0.647003c-1.818726,0.899002 -3.962189,2.622116 -4.870056,5.600006c-0.907867,2.97789 -1.373901,6.117996 -1.359863,8.07399c0.014038,1.956009 0.054321,3.646011 0.305298,5.274002c0.250977,1.628998 0.705261,7.605011 1.054565,7.452011c0.349365,-0.153 1.106995,-12.462006 2.081055,-15.200012c0.973999,-2.737991 1.847778,-3.909988 2.789001,-4.799988c0.941284,-0.889999 1.819763,-1.952011 3.746216,-2c1.926514,-0.048004 6.39386,2.952988 6.39386,2.952988z" stroke="#000000" fill="#000000"/>
  <path id="svg_30" d="m308.573883,238.712006l0.061676,-0.541992l0.061646,-0.543015l0.062683,-0.541992l0.061646,-0.542007l0.061676,-0.542999l0.062714,-0.541992l0.113007,-0.542999l0.113068,-0.542007l0.154144,-0.522995l0.256897,-0.522003l0.256927,-0.522995l0.256927,-0.522995l0.256927,-0.52301l0.256897,-0.522003l0.256927,-0.522995l0.256927,-0.423004l0.420319,-0.554001l0.420319,-0.454987l0.420319,-0.45401l0.421356,-0.455002l0.420319,-0.453995l0.420349,-0.455002l0.368896,-0.354004l0.625885,-0.404999l0.331909,-0.209l0.588867,-0.259003l0.536469,-0.158997l0.537506,-0.158997l0.537415,-0.160004l0.537506,-0.158997l0.536438,-0.108994l0.537476,-0.059006l0.653625,-0.009003l0.654602,0.041l0.653625,0.041l0.653595,0.040009l0.654633,0.140991l0.653595,0.091003l0.654633,0.140991l0.653595,0.19101l0.541595,0.285995l0.541595,0.337006l0.43985,0.285995l0.490204,0.386002l0.541595,0.436996l0.438812,0.436005l0.439819,0.436996l0.387451,0.436005l0.523102,0.76799l0.420288,0.819l0.420349,0.818008l0.317535,0.817993l0.289825,0.863998l0.186005,0.863007l0.187042,0.863007l0.032867,0.813995l-0.079132,0.686005l-0.46756,1.273987l0.233246,-0.636993l-0.517944,1.322998l-0.368927,0.449997l-0.420349,0.5l-0.420288,0.5l-0.574463,0.450012l-0.500488,0.231995l-0.705017,0.281998l-0.602203,0.181l-0.654602,0.132004l-0.886932,0.185989l-0.887909,0.136002l-0.887909,0.087006l-0.886871,-0.013992l-0.466583,-0.036011l-0.518982,-0.037003l-0.466553,-0.136002l-0.416199,-0.235992l0.589874,-0.352005l0.588867,-0.352997l0.589874,-0.352005l0.589905,-0.35199l0.589874,-0.352005l0.589905,-0.352997l0.589874,-0.352005l0.384369,-0.401993l0.438812,-0.768005l0.233276,-0.819l0.02774,-0.867996l-0.167511,-0.677002l-0.374084,-0.727005l-0.373047,-0.727997l-0.528198,-0.576996l-0.780029,-0.468002l-0.934143,-0.317993l-0.934143,-0.318008l-0.985565,-0.168991l-0.782074,0.010986l-0.833435,0.161011l-0.832428,0.160995l-0.833435,0.210999l-0.562134,0.318008l-0.563202,0.366989l-0.562134,0.368011l-0.562134,0.366989l-0.563141,0.367996l-0.562134,0.367004l-0.562164,0.367004l-0.563171,0.417999l-0.436798,0.384995l-0.437775,0.436005l-0.437775,0.434998l-0.437775,0.434998l-0.436798,0.436005l-0.437775,0.434998l-0.437805,0.436005l-0.437775,0.434998z" stroke="#000000" fill="#000000"/>
  <path id="svg_32" d="m308.48642,224.406845c0.098328,-1.49118 0.127777,-1.872131 0.042267,-3.363327c-0.08551,-1.49118 -0.056,-2.546997 -0.350983,-3.43161c-0.294983,-0.884628 -0.344116,-1.323959 -0.983215,-2.258057c-0.639069,-0.934082 -1.818939,-1.822662 -2.882751,-2.168991c-1.063782,-0.346344 -1.943787,-0.42746 -3.155121,-0.237488c-1.211273,0.190979 -1.943756,0.686722 -2.860138,1.619827c-0.916351,0.932114 -1.381378,2.224411 -1.608459,3.057571c-0.228119,0.834152 -0.277252,2.612289 -0.35788,4.138123c-0.080658,1.52681 0.01181,1.622787 0,3.058548c-0.012787,1.435776 1.964386,-2.326324 2.860107,-2.878464c0.895691,-0.552139 1.515106,-0.842072 2.614349,-0.89946c1.099213,-0.057388 2.578918,0.151398 3.284851,0.539276c0.705933,0.388885 1.573151,1.033051 1.885803,1.421921c0.312622,0.387878 1.369598,1.251724 1.511169,1.40213z" stroke="#000000" fill="#000000"/>
  <path id="svg_33" d="m407.687805,300.425903c1.221802,-5.554016 2.396942,-9.826813 3.618805,-15.380829c1.604431,-5.11499 2.462067,-9.502991 4.625641,-15.527008c2.163574,-6.023987 3.444855,-8.605988 6.565582,-14c3.120697,-5.393982 3.41922,-6.278992 8.207001,-11.599991c4.78775,-5.320999 4.613312,-5.781998 9.438019,-8.399994c4.824646,-2.617996 7.660217,-3.320999 11.489746,-2.800003c3.82959,0.520996 4.103516,1.309006 6.155212,3.600006c2.051758,2.291 2.11438,4 2.051758,6c-0.062561,2 -0.609375,4.25499 -2.872437,7.199997c-2.263062,2.944992 -4.451233,4.98201 -7.79657,7.199966c-3.345398,2.217987 -5.471008,2.933014 -8.207031,4.400024c-3.419189,1.333008 -6.839478,3.029999 -10.258698,4c-3.41925,0.970001 -5.470978,1.394012 -8.207001,1.817993c-2.736023,0.424011 -8.480896,0.388 -12.720825,0.582001c-3.693115,-0.399994 -6.441467,-0.315002 -11.079437,-1.199982c-4.637939,-0.88501 -4.675903,-1.152008 -9.438019,-3.200012c-4.762115,-2.048004 -7.660187,-3.199982 -11.489807,-5.600037c-3.829529,-2.399963 -7.660156,-4.072968 -11.489746,-7.199951c-3.82959,-3.126999 -7.47348,-6.109009 -11.489746,-10.800003c-4.016357,-4.69101 -6.702057,-9.733002 -8.580414,-14c-1.87738,-4.266998 -3.381287,-8.533005 -4.140442,-12.800003c-0.759125,-4.266998 -0.745789,-5.139999 -1.305908,-8.981995c-0.559113,-3.84201 0.820679,-9.527008 2.536957,-13.018005c1.716309,-3.490997 4.066559,-6.582001 8.61734,-9.600006c4.550781,-3.01799 6.167542,-3.757996 11.489746,-4c5.322266,-0.241989 6.747192,-0.406998 11.266174,2c4.518951,2.407013 4.288116,3.003006 6.573761,6.210007c2.286682,3.205994 1.945068,4.182999 2.247711,8.076004c0.302643,3.891998 0.081055,3.774002 -0.801208,7.713989c-0.882263,3.940002 -1.430084,5.236008 -4.103485,8.400009c-2.673431,3.164001 -6.364532,4.35199 -8.512695,4.272003c-2.148193,-0.080002 -3.406921,0.051987 -6.123444,-0.901001c-2.715485,-0.952011 -5.04834,-3.153 -6.478394,-5.735001c-1.430054,-2.581009 -2.005585,-5.200012 -1.670105,-6.835999c0.336487,-1.636002 2.990387,-5.445999 4.631805,-5.810013c1.641388,-0.362991 3.826508,-0.778992 5.529449,1.136002c1.703979,1.916 2.56366,3.99501 3.520782,5.729004" stroke-width="5" stroke="#000000" fill="none"/>
  <path id="svg_34" d="m199.166626,307.761749c2.563507,-3.063446 2.023834,-3.023743 8.023865,-8.190369l9.666656,-6.999939c4.285706,-2.571442 8.571426,-5.142853 12.857132,-7.714294c4.476196,-2.095245 8.952377,-4.19046 13.428574,-6.285706c4.380951,-1.523804 8.761902,-3.047638 13.142853,-4.571442c3.333344,-0.857147 6.666656,-1.714294 10,-2.571442c4.095245,-0.761902 8.190491,-1.523804 12.285736,-2.285706c2.952362,-0.380951 5.904755,-0.761902 8.857117,-1.142853c2.571442,-0.285706 6.095367,-0.452423 7.714294,-0.523834c1.618927,-0.071411 5.904755,-0.142853 8.857147,-0.047607c3.714294,0 7.428558,0 11.142853,0c5.047607,0.380951 9.611115,0.547638 15.142853,1.30954c5.531738,0.761902 11.063416,2.19043 14.761841,2.952332l5.702393,1.452423l5.702423,1.61908c5.333344,1.833313 6.214386,2.404755 11.547638,4.523804c5.333252,2.119049 9.571442,3.738159 13.238068,5.595276c3.666626,1.857117 6.928558,3.30954 9.928528,5.166595c2.999969,1.857056 5.833466,3.500092 9.000061,5.69043c3.166595,2.190338 6.242798,4.73819 8.409546,6.761932" stroke-width="5" stroke="#000000" fill="none"/>
 </g>
</svg>